# xmcd
#
# Track frame offsets:
# 150
# 5788
# 58060
# 83179
# 106536
# 125326
# 153289
# 185383
# 209501
# 235371
# 268525
# 299066
#
# Disc length: 4500 seconds
#
#
# Revision: 0
# Processed by: cddbd v1.5.2PL0 Copyright (c) Steve Scherf et al.
# Submitted via: FreeRIP 2.951 
#
DISCID=a911920c
DTITLE=Renascer Praise - Renascer Praise XII - Restauração
DYEAR=2005
DGENRE=Gospel
TTITLE0=Abertura
TTITLE1=Na Força do Louvor
TTITLE2=Pés Apostólicos
TTITLE3=Os Filhos de Deus
TTITLE4=Ministração
TTITLE5=Tu és o Motivo
TTITLE6=Adorador
TTITLE7=Vem Espírito
TTITLE8=Graças te Damos
TTITLE9=Comunhão
TTITLE10=Algo mais que a Neve
TTITLE11=Na tua Presença
EXTD=
EXTT0=
EXTT1=
EXTT2=
EXTT3=
EXTT4=
EXTT5=
EXTT6=
EXTT7=
EXTT8=
EXTT9=
EXTT10=
EXTT11=
PLAYORDER=
